<svg xmlns="http://www.w3.org/2000/svg" viewBox="0 0 64 64" role="img" aria-label="GitHub">
  <rect width="64" height="64" rx="14" fill="#181A20"/>
  <path fill="#FFFFFF" d="M32 11.2c-11.8 0-21.4 9.6-21.4 21.4 0 9.4 6.1 17.4 14.6 20.3 1.1.2 1.5-.5 1.5-1v-3.7c-5.9 1.3-7.2-2.5-7.2-2.5-1-2.4-2.4-3.1-2.4-3.1-2-1.4.1-1.4.1-1.4 2.2.2 3.4 2.3 3.4 2.3 2 3.4 5.2 2.4 6.4 1.8.2-1.4.8-2.4 1.4-2.9-4.7-.5-9.7-2.4-9.7-10.6 0-2.3.8-4.3 2.2-5.8-.2-.5-1-2.7.2-5.7 0 0 1.9-.6 6 2.2 1.7-.5 3.5-.7 5.3-.7s3.6.2 5.3.7c4.1-2.8 6-2.2 6-2.2 1.2 3 .4 5.2.2 5.7 1.4 1.5 2.2 3.5 2.2 5.8 0 8.2-5 10-9.7 10.6.8.7 1.5 2 1.5 4v5.9c0 .6.4 1.2 1.5 1 8.5-2.8 14.6-10.8 14.6-20.3 0-11.8-9.6-21.4-21.4-21.4Z"/>
</svg>
