<svg xmlns="http://www.w3.org/2000/svg" viewBox="0 0 24 24" role="img" aria-label="GitLab">
  <path fill="currentColor" d="m23.954 13.588-1.566-4.817L19.836.861a.85.85 0 0 0-1.618 0l-2.553 7.91H6.333L3.781.861a.85.85 0 0 0-1.618 0L.597 8.771l-1.566 4.817a1.7 1.7 0 0 0 .618 1.902l11.653 8.461 11.654-8.461a1.7 1.7 0 0 0 .618-1.902M9.097 15.569 12 19.098l-4.386-3.529zM14.903 15.569 16.386 15.569 12 19.098zM14.491 13.585h-4.982L12 7.756zM18.018 8.305l-2.891 8.921h4.756l.912-2.807a1.7 1.7 0 0 0-.618-1.902zM5.973 8.305 3.82 12.419a1.7 1.7 0 0 0-.618 1.902l.912 2.807h4.756z"/>
</svg>
